<?xml version="1.0" ?>
<svg data-name="Layer 1" id="Layer_1" viewBox="0 0 512 512" xmlns="http://www.w3.org/2000/svg" fill="#db2777">
<polygon points="142.9 231.29 142.9 330.33 228.67 379.85 314.45 330.33 314.45 231.29 228.67 181.77 142.9 231.29"/>
<path d="M405.84,376.26V185.36a11.82,11.82,0,0,0-5.92-10.26L234.6,79.66a11.83,11.83,0,0,0-11.85,0L57.43,175.1a11.83,11.83,0,0,0-5.93,10.26v190.9a11.85,11.85,0,0,0,5.93,10.26L222.75,482a11.83,11.83,0,0,0,11.85,0l165.32-95.45A11.84,11.84,0,0,0,405.84,376.26ZM338.15,344,228.67,407.22,119.2,344V217.6l109.47-63.2,109.48,63.2Z"/>
<path d="M252.81,77.63A11.81,11.81,0,0,0,261.35,74l30.9-32.13h83.09a11.85,11.85,0,1,0,0-23.7H287.2a11.87,11.87,0,0,0-8.55,3.63L244.26,57.57a11.86,11.86,0,0,0,8.55,20.06Z"/>
<path d="M366.46,53.66H326.3a11.85,11.85,0,0,0,0,23.7h40.16a11.85,11.85,0,1,0,0-23.7Z"/>
<path d="M448.65,470.13H392l-27.45-27.44a11.85,11.85,0,0,0-16.76,16.76l30.93,30.91a11.84,11.84,0,0,0,8.37,3.47h61.59a11.85,11.85,0,0,0,0-23.7Z"/>
<path d="M390.55,444.17A11.86,11.86,0,0,0,402.4,456h46.25a11.85,11.85,0,0,0,0-23.7H402.4A11.86,11.86,0,0,0,390.55,444.17Z"/>
</svg>