<?xml version="1.0" standalone="no"?>
<!DOCTYPE svg PUBLIC "-//W3C//DTD SVG 20010904//EN"
 "http://www.w3.org/TR/2001/REC-SVG-20010904/DTD/svg10.dtd">
<svg version="1.0" xmlns="http://www.w3.org/2000/svg"
 width="1600.000000pt" height="269.000000pt" viewBox="0 0 1600.000000 269.000000"
 preserveAspectRatio="xMidYMid meet">

<g transform="translate(0.000000,269.000000) scale(0.100000,-0.100000)"
fill="#db2777" stroke="none">
<path d="M8062 2366 l-2 -59 -38 5 c-39 6 -62 -8 -62 -36 0 -8 -6 -19 -14 -23
-10 -6 -14 -78 -19 -353 -4 -231 -9 -346 -16 -348 -7 -2 -11 -76 -11 -225 0
-122 -5 -269 -10 -327 -6 -58 -14 -226 -18 -375 l-7 -270 -56 -3 -56 -3 -7
273 c-7 292 -14 418 -25 416 -3 0 -16 0 -28 1 l-23 1 0 269 c0 148 -4 281 -9
294 -9 23 -15 25 -126 32 -98 6 -119 5 -140 -9 -21 -14 -40 -16 -100 -10 l-75
7 0 -437 0 -436 -25 0 c-14 0 -25 -5 -25 -11 0 -22 -35 -38 -82 -39 l-48 0 0
-139 0 -140 -55 -6 c-34 -5 -55 -12 -55 -20 0 -14 -62 -23 -116 -17 l-34 4 0
64 c0 60 -2 65 -25 74 -15 6 -25 17 -25 30 0 13 -7 20 -20 20 -11 0 -20 4 -20
10 0 12 -65 40 -91 40 -14 0 -19 7 -19 29 0 35 -13 41 -95 41 -91 0 -123 -8
-128 -34 -3 -11 -5 17 -4 64 l0 84 -59 18 c-32 10 -71 18 -86 18 -25 0 -28 4
-28 35 l0 35 -105 0 c-105 0 -105 0 -105 -24 0 -22 -5 -25 -42 -28 l-43 -3 -3
-232 c-1 -144 -6 -233 -12 -233 -6 0 -10 14 -10 30 0 30 -1 30 -55 30 -30 0
-55 5 -55 10 0 6 -20 10 -44 10 -70 0 -106 10 -106 30 0 32 -42 130 -56 130
-8 0 -15 12 -15 28 -2 23 -2 24 -6 5 -4 -23 -23 -33 -23 -13 0 6 -22 10 -50
10 -28 0 -50 -5 -50 -11 0 -13 -172 -1 -181 13 -3 5 -63 7 -140 3 -74 -3 -183
-6 -244 -8 l-110 -2 -3 163 -2 162 -84 0 -84 0 -7 30 -7 30 -89 0 c-81 0 -89
2 -89 19 0 13 -9 21 -30 26 l-30 7 0 178 c0 138 -3 180 -14 189 -7 6 -19 39
-25 74 -7 34 -17 70 -22 79 -5 10 -9 35 -10 55 -1 21 -4 49 -9 63 l-7 25 -11
-27 c-12 -30 -52 -40 -52 -13 0 9 -6 18 -14 21 -8 3 -16 19 -20 35 -7 35 -26
30 -26 -6 0 -19 -8 -26 -37 -34 -51 -15 -100 -14 -106 2 -4 9 -8 9 -14 0 -5
-7 -25 -9 -56 -6 -45 5 -47 7 -48 37 -1 17 -8 -5 -16 -49 -8 -44 -18 -87 -21
-95 -18 -46 -35 -208 -39 -367 l-4 -183 -39 0 -40 0 0 100 0 100 -55 0 -55 0
0 90 0 90 -98 0 c-57 0 -109 -5 -125 -12 -26 -12 -27 -17 -27 -85 l0 -73 -30
0 c-27 0 -30 3 -30 30 l0 30 -62 1 c-35 1 -66 1 -70 0 -5 0 -8 8 -8 19 0 11
-7 23 -15 26 -8 4 -15 15 -15 26 0 11 -8 22 -20 25 -24 6 -26 11 -41 158 -15
136 -22 125 -34 -52 l-7 -103 -28 0 c-30 0 -40 -18 -40 -77 0 -18 -4 -33 -9
-33 -18 0 -30 -108 -36 -337 -3 -128 -8 -240 -11 -248 -4 -8 -12 -15 -20 -15
-8 0 -14 -4 -14 -10 0 -5 -7 -10 -15 -10 -12 0 -15 14 -15 65 l0 65 -40 0
c-22 0 -40 5 -40 10 0 6 -7 10 -15 10 -12 0 -15 15 -15 78 0 96 -7 122 -31
122 -18 0 -19 9 -19 135 l0 135 -30 0 c-29 0 -30 2 -30 43 0 41 -23 77 -50 77
-6 0 -10 5 -10 10 0 6 -6 10 -13 10 -7 0 -19 9 -27 21 -8 11 -26 27 -41 34
-14 7 -34 29 -44 49 l-19 35 -29 -40 c-16 -21 -32 -39 -37 -39 -4 0 -18 11
-31 25 -13 13 -29 25 -35 25 -7 0 -14 27 -18 63 -11 97 -18 138 -24 132 -3 -2
-11 -46 -18 -97 -7 -51 -17 -94 -23 -96 -6 -2 -11 -8 -11 -13 0 -15 -54 -79
-66 -79 -12 0 -24 -76 -24 -157 0 -29 -4 -53 -10 -53 -5 0 -10 -7 -10 -15 0
-8 -9 -15 -19 -15 -51 0 -51 -2 -51 -174 l0 -161 -51 4 c-28 2 -54 -1 -58 -7
-3 -6 -21 -14 -39 -19 l-34 -8 1 -159 c1 -95 -2 -155 -7 -152 -6 3 -15 -1 -22
-9 -7 -8 -21 -15 -31 -15 -16 0 -19 -8 -19 -43 0 -52 -9 -65 -24 -34 -8 15
-22 23 -44 25 -20 2 -32 9 -32 18 0 8 -8 14 -18 14 -11 0 -26 8 -35 18 -14 16
-17 43 -17 171 0 144 -1 153 -20 158 -11 3 -20 13 -20 22 0 31 -22 41 -95 41
-75 0 -95 -9 -95 -45 0 -12 -13 -31 -30 -43 -36 -27 -40 -27 -40 -2 0 11 -4
20 -10 20 -5 0 -10 -8 -10 -19 0 -19 -25 -31 -67 -31 -19 0 -23 5 -23 31 l0
32 -53 -7 c-28 -3 -60 -6 -69 -6 -10 0 -18 -7 -18 -15 0 -8 -7 -15 -15 -15
-11 0 -15 11 -15 39 0 30 -6 44 -25 59 -23 19 -25 26 -25 111 l0 91 -143 0
c-204 0 -189 23 -185 -304 l3 -256 -23 0 c-30 0 -61 -37 -62 -71 0 -25 -4 -27
-60 -33 -33 -4 -65 -4 -71 -1 -5 4 -53 4 -105 0 -95 -7 -95 -8 -101 -36 -7
-35 -24 -37 -57 -5 -22 20 -26 32 -26 85 0 48 -3 61 -15 61 -12 0 -15 13 -15
55 0 48 -2 55 -20 55 -20 0 -20 -7 -20 -345 l0 -345 8000 0 8000 0 -2 401 -3
402 -45 13 c-25 8 -57 14 -72 14 -25 0 -28 4 -28 35 l0 35 -105 0 c-105 0
-105 0 -105 -24 0 -22 -5 -25 -42 -28 l-43 -3 -3 -232 c-1 -144 -6 -233 -12
-233 -6 0 -10 14 -10 30 0 30 -1 30 -55 30 -30 0 -55 5 -55 10 0 6 -20 10 -44
10 -70 0 -106 10 -106 30 0 32 -42 130 -56 130 -8 0 -15 12 -15 28 -2 23 -2
24 -6 5 -4 -23 -23 -33 -23 -13 0 6 -22 10 -50 10 -28 0 -50 -5 -50 -11 0 -15
-171 1 -188 18 -7 7 -23 11 -36 7 -12 -3 -49 -1 -83 5 -52 8 -69 7 -116 -10
-44 -16 -75 -19 -153 -17 l-99 3 -3 163 -2 162 -84 0 -84 0 -7 30 -7 30 -89 0
c-81 0 -89 2 -89 19 0 13 -9 21 -30 26 l-30 7 0 178 c0 138 -3 180 -14 189 -7
6 -19 39 -25 74 -7 34 -17 70 -22 79 -5 10 -9 35 -10 55 -1 21 -4 49 -9 63
l-7 25 -11 -27 c-12 -30 -52 -40 -52 -13 0 9 -6 18 -14 21 -8 3 -16 19 -20 35
-7 35 -26 30 -26 -6 0 -19 -8 -26 -37 -34 -51 -15 -100 -14 -106 2 -4 9 -8 9
-14 0 -5 -7 -25 -9 -56 -6 -45 5 -47 7 -48 37 -1 17 -8 -5 -16 -49 -8 -44 -18
-87 -21 -95 -22 -57 -35 -213 -39 -466 l-4 -282 -32 -5 c-18 -2 -35 -3 -39 0
-5 2 -8 94 -8 204 l0 199 -55 0 -55 0 0 90 0 90 -98 0 c-57 0 -109 -5 -125
-12 -26 -12 -27 -17 -27 -85 l0 -73 -30 0 c-27 0 -30 3 -30 30 l0 30 -62 1
c-35 1 -66 1 -70 0 -5 0 -8 8 -8 19 0 11 -7 23 -15 26 -8 4 -15 15 -15 26 0
11 -8 22 -20 25 -24 6 -26 11 -41 158 -15 136 -22 125 -34 -52 l-7 -103 -28 0
c-30 0 -40 -18 -40 -77 0 -18 -4 -33 -9 -33 -18 0 -30 -108 -36 -337 -3 -128
-8 -240 -11 -248 -4 -8 -12 -15 -20 -15 -8 0 -14 -4 -14 -10 0 -5 -7 -10 -15
-10 -12 0 -15 14 -15 65 l0 65 -40 0 c-22 0 -40 5 -40 10 0 6 -7 10 -15 10
-12 0 -15 15 -15 78 0 96 -7 122 -31 122 -18 0 -19 9 -19 135 l0 135 -30 0
c-29 0 -30 2 -30 43 0 41 -23 77 -50 77 -6 0 -10 5 -10 10 0 6 -6 10 -13 10
-7 0 -19 9 -27 21 -8 11 -26 27 -41 34 -14 7 -34 29 -44 49 l-19 35 -29 -40
c-16 -21 -32 -39 -37 -39 -4 0 -18 11 -31 25 -13 13 -29 25 -35 25 -7 0 -14
27 -18 63 -11 97 -18 138 -24 132 -3 -2 -11 -46 -18 -97 -7 -51 -17 -94 -23
-96 -6 -2 -11 -8 -11 -13 0 -15 -54 -79 -66 -79 -12 0 -24 -76 -24 -157 0 -29
-4 -53 -10 -53 -5 0 -10 -7 -10 -15 0 -8 -9 -15 -19 -15 -51 0 -51 -2 -51
-174 l0 -161 -51 4 c-28 2 -54 -1 -58 -7 -3 -6 -21 -14 -39 -19 l-34 -8 1
-159 c1 -95 -2 -155 -7 -152 -6 3 -15 -1 -22 -9 -7 -8 -21 -15 -31 -15 -16 0
-19 -8 -19 -43 0 -52 -9 -65 -24 -34 -8 15 -22 23 -44 25 -20 2 -32 9 -32 18
0 8 -8 14 -18 14 -11 0 -26 8 -35 18 -14 16 -17 43 -17 171 0 144 -1 153 -20
158 -11 3 -20 13 -20 22 0 31 -22 41 -95 41 -75 0 -95 -9 -95 -45 0 -12 -13
-31 -30 -43 -36 -27 -40 -27 -40 -2 0 11 -4 20 -10 20 -5 0 -10 -8 -10 -19 0
-19 -25 -31 -67 -31 -19 0 -23 5 -23 31 l0 32 -52 -7 c-29 -3 -61 -6 -70 -6
-10 0 -18 -7 -18 -15 0 -8 -7 -15 -15 -15 -11 0 -15 11 -15 39 0 30 -6 44 -25
59 -23 19 -25 26 -25 111 l0 91 -143 0 c-204 0 -189 23 -185 -304 l3 -256 -23
0 c-30 0 -61 -37 -62 -71 0 -25 -4 -27 -60 -33 -33 -4 -65 -4 -71 -1 -5 4 -53
4 -105 0 -95 -7 -95 -8 -101 -36 -7 -35 -24 -37 -57 -5 -22 20 -26 32 -26 85
0 48 -3 61 -15 61 -12 0 -15 13 -15 55 l0 55 -35 0 c-28 0 -35 4 -35 20 0 13
-7 20 -20 20 -13 0 -20 -7 -20 -20 0 -21 -33 -29 -45 -10 -16 26 -25 3 -25
-65 l0 -75 -32 0 c-35 1 -68 19 -68 38 0 13 -40 25 -67 20 -11 -2 -19 -14 -21
-31 -3 -24 -8 -27 -38 -27 l-34 0 0 149 c0 165 2 161 -69 161 l-38 0 -6 187
c-4 104 -7 303 -7 444 l0 256 -42 6 c-69 9 -78 -1 -80 -96 -1 -56 -3 -67 -5
-33 l-4 49 -44 -6 c-29 -4 -53 -2 -72 8 -32 17 -129 20 -138 5 -3 -5 -19 -10
-36 -10 -16 0 -29 -4 -29 -10 0 -5 -16 -10 -35 -10 -29 0 -36 -5 -50 -35 -15
-30 -16 -70 -13 -312 3 -258 2 -278 -14 -281 -16 -3 -18 5 -20 60 l-2 63 -3
-55 c-3 -30 -9 -60 -15 -68 -7 -8 -13 -130 -16 -355 -3 -188 -7 -336 -9 -329
-3 6 -19 12 -38 12 l-33 0 6 750 5 750 -52 0 c-34 0 -51 -4 -52 -12 0 -7 -4
-4 -9 7 -5 11 -9 126 -9 256 l-1 237 -35 6 c-19 4 -35 11 -35 16 0 6 -4 10
-10 10 -5 0 -10 -16 -10 -36 0 -29 -3 -35 -16 -30 -9 3 -36 6 -60 6 l-44 0 0
38 c0 20 -5 44 -10 52 -7 11 -10 0 -10 -38 0 -45 -3 -53 -17 -50 -14 2 -19 17
-24 58 l-6 55 -1 -59z m-4331 -1356 c15 -9 19 -22 19 -64 0 -59 -14 -80 -52
-74 -21 3 -23 9 -26 67 -4 77 12 96 59 71z"/>
</g>
</svg>
