<svg height="496pt" viewBox="0 0 496 496.00547" width="496pt" xmlns="http://www.w3.org/2000/svg"><path d="m336.003906 32.003906h80v48h-80zm0 0" fill="#f0bc5e"/><path d="m443.316406.00390625h-139.3125v255.99999975h192v-203.308594zm4.6875 27.31249975 20.6875 20.6875h-20.6875zm-128 212.6875v-224h112v48h48v176zm0 0"/><path d="m392.003906 172.695312-18.34375-18.347656-11.3125 11.3125 29.65625 29.65625 77.65625-77.65625-11.3125-11.3125zm0 0"/><path d="m448.003906 208.003906h-96v-72h64v-16h-80v104h128v-64h-16zm0 0"/><path d="m336.003906 32.003906h16v16h-16zm0 0"/><path d="m224.003906 160.003906c0 4.417969-3.582031 8-8 8-4.417968 0-8-3.582031-8-8 0-4.417968 3.582032-8 8-8 4.417969 0 8 3.582032 8 8zm0 0"/><path d="m144.003906 160.003906c0 4.417969-3.582031 8-8 8-4.417968 0-8-3.582031-8-8 0-4.417968 3.582032-8 8-8 4.417969 0 8 3.582032 8 8zm0 0"/><path d="m336.003906 464.003906v16h-121.058594l-14.664062-102.65625 9.425781-18.839844 17.832031 14.867188 26.6875-71.160156 49.625 9.925781c1.886719.375 3.71875.890625 5.496094 1.511719l5.328125-15.09375c-2.503906-.882813-5.097656-1.59375-7.679687-2.113282l-74.992188-14.992187v-25.121094c8.917969-9.054687 15.765625-20.222656 19.816406-32.710937 20.246094-1.960938 36.183594-18.871094 36.183594-39.617188v-68.910156c0-60.847656-46.152344-111.304688-105.066406-114.878906-27.605469-1.707032-54.71875 6.839844-76.3125 23.964844-19.628906 15.585937-41.070312 31.890624-64.75 45.503906l-13.945312 8.035156 5.824218 7.277344c8.585938 10.730468 18.863282 19.59375 30.25 26.480468v72.527344c0 20.554688 15.640625 37.335938 35.597656 39.554688 3.898438 12.582031 10.890626 24.117187 20.402344 33.472656v24.414062l-74.984375 14.992188c-26.089843 5.222656-45.01562475 28.328125-45.01562475 54.921875v144.644531h351.99999975v-32zm-169.058594-80h18.121094l13.710938 96h-45.542969zm20.113282-16h-22.113282l-10.015624-20.023437 21.074218-17.558594 21.0625 17.550781zm-51.054688-98.765625c12.054688 7 25.679688 10.765625 39.917969 10.765625 1.785156 0 3.578125-.054687 5.386719-.167968 12.613281-.816407 24.375-4.710938 34.695312-10.878907v14.769531l-40 26.664063-40-26.664063zm102.320313 29.78125-17.859375 47.625-31.109375-25.925781 36.328125-24.21875zm17.140625-92.316406c.328125-3.019531.539062-6.066406.539062-9.167969v-36.058594c9.285156 3.3125 16 12.113282 16 22.527344 0 10.617188-6.96875 19.539063-16.539062 22.699219zm-138.894532-169.984375c18.496094-14.671875 41.777344-21.929688 65.402344-20.527344 50.484375 3.054688 90.03125 46.503906 90.03125 98.902344v37.121094c-4.671875-3.539063-10.058594-6.183594-16-7.394532v-8.816406c0-13.230468-10.769531-24-24-24h-108.777344c-26.960937 0-52.273437-10.8125-70.777343-29.941406 23.546875-13.824219 44.722656-29.9375 64.121093-45.34375zm-20.566406 88.046875v20.046875c-5.945312 1.21875-11.328125 3.855469-16 7.394531v-32.671875c5.191406 2.109375 10.519532 3.894532 16 5.230469zm-16 59.238281c0-10.414062 6.710938-19.214844 16-22.527344v38.527344c0 2.226563.160156 4.433594.34375 6.632813-9.464844-3.214844-16.34375-12.085938-16.34375-22.632813zm32-56.535156c3.710938.359375 7.453125.535156 11.222656.535156h108.777344c4.414063 0 8 3.585938 8 8v61.53125c0 35.023438-26.234375 64.167969-59.730468 66.328125-17.976563 1.148438-34.992188-4.929687-48.03125-17.152343-13.054688-12.234376-20.238282-28.824219-20.238282-46.707032zm14.3125 169.023438 36.328125 24.21875-31.113281 25.925781-17.855469-47.625zm-110.3125 54.867187c0-19 13.519532-35.496094 32.160156-39.226563l49.621094-9.925781 26.691406 71.160157 17.832032-14.867188 9.421875 18.839844-14.671875 102.664062h-57.054688v-120h-16v120h-48zm0 0"/><path d="m176.003906 240.003906c17.648438 0 32-14.351562 32-32h-16c0 8.824219-7.175781 16-16 16-8.824218 0-16-7.175781-16-16h-16c0 17.648438 14.351563 32 32 32zm0 0"/><path d="m368.003906 32.003906h48v16h-48zm0 0"/><path d="m336.003906 64.003906h16v16h-16zm0 0"/><path d="m368.003906 64.003906h48v16h-48zm0 0"/><path d="m406.25 496.003906h-44.496094l-5-20.023437c-6.414062-1.894531-12.605468-4.472657-18.503906-7.679688l-17.710938 10.625-31.457031-31.457031 10.625-17.710938c-3.207031-5.894531-5.785156-12.097656-7.679687-18.503906l-20.023438-5v-44.496094l20.023438-5c1.894531-6.417968 4.472656-12.609374 7.679687-18.503906l-10.625-17.710937 31.457031-31.457031 17.710938 10.625c5.898438-3.210938 12.097656-5.785157 18.503906-7.679688l5-20.027344h44.496094l5 20.027344c6.417969 1.894531 12.609375 4.46875 18.503906 7.679688l17.710938-10.625 31.457031 31.457031-10.625 17.710937c3.210937 5.894532 5.785156 12.09375 7.683594 18.503906l20.023437 5v44.496094l-20.023437 5c-1.898438 6.414063-4.472657 12.609375-7.683594 18.503906l10.625 17.710938-31.457031 31.457031-17.710938-10.625c-5.894531 3.207031-12.09375 5.785157-18.503906 7.679688zm0 0" fill="#f0bc5e"/><path d="m400.003906 376.003906h-32c-4.417968 0-8-3.582031-8-8v-8c0-4.414062 3.582032-8 8-8h32c4.414063 0 8 3.585938 8 8h16c0-13.230468-10.769531-24-24-24h-8v-8h-16v8h-8c-13.234375 0-24 10.769532-24 24v8c0 13.234375 10.765625 24 24 24h32c4.414063 0 8 3.585938 8 8v8c0 4.417969-3.585937 8-8 8h-32c-4.417968 0-8-3.582031-8-8h-16c0 13.234375 10.765625 24 24 24h8v8h16v-8h8c13.230469 0 24-10.765625 24-24v-8c0-13.230468-10.769531-24-24-24zm0 0"/></svg>