<svg xmlns="http://www.w3.org/2000/svg" version="1.0" width="512.000000pt" height="512.000000pt" viewBox="0 0 512.000000 512.000000" preserveAspectRatio="xMidYMid meet">
<g transform="translate(0.000000,512.000000) scale(0.100000,-0.100000)" fill="#ffd700" stroke="none">
<path d="M1230 4351 c-116 -46 -183 -80 -275 -138 -73 -47 -155 -120 -155 -138 0 -6 11 -27 25 -48 l26 -37 -44 -75 -44 -76 -46 50 -47 50 -33 -42 c-63 -78 -177 -257 -177 -278 0 -17 78 -95 115 -115 19 -10 35 -21 35 -24 0 -3 -10 -42 -23 -87 l-22 -82 -55 31 c-30 17 -74 46 -97 65 -39 32 -42 33 -52 15 -25 -46 -65 -168 -97 -291 l-35 -134 33 -34 c37 -38 128 -85 200 -103 l46 -12 4 -86 c2 -48 3 -89 2 -91 -8 -10 -164 37 -232 70 -42 20 -78 36 -80 34 -6 -6 -4 -333 3 -398 8 -75 29 -102 107 -137 55 -24 195 -44 255 -36 l41 5 31 -80 c17 -45 29 -85 25 -90 -10 -17 -253 -9 -329 11 -38 10 -71 17 -72 16 -5 -4 41 -155 72 -237 18 -47 49 -117 68 -156 47 -92 62 -98 227 -97 105 0 137 4 200 25 l75 25 53 -69 c61 -80 64 -74 -48 -112 -105 -35 -204 -55 -277 -55 -35 0 -63 -3 -63 -7 0 -16 147 -198 233 -289 94 -99 132 -124 189 -124 95 1 250 57 353 129 l40 27 73 -50 c39 -27 72 -53 72 -56 0 -3 -44 -35 -97 -70 -86 -57 -237 -129 -270 -130 -48 0 39 -60 232 -156 120 -61 133 -65 174 -59 95 14 197 71 292 162 l58 55 108 -36 c123 -41 257 -72 356 -82 66 -7 67 -6 68 17 0 13 3 56 7 96 9 83 23 72 -118 94 -78 12 -269 65 -283 78 -4 4 4 28 18 53 56 100 87 207 92 313 4 77 2 109 -10 137 -18 42 -23 45 -150 83 -48 14 -93 28 -101 31 -10 4 -17 -12 -25 -62 -16 -92 -50 -170 -115 -268 -79 -119 -73 -116 -156 -61 -48 32 -68 51 -62 59 5 6 28 35 50 64 85 109 126 237 108 335 -5 28 -18 44 -59 74 -29 21 -80 62 -115 91 -35 30 -65 52 -66 50 -1 -1 -17 -28 -36 -58 -18 -30 -46 -71 -62 -90 -39 -45 -160 -150 -173 -149 -11 0 -91 96 -100 120 -3 9 12 28 44 52 99 76 166 170 177 249 6 41 3 50 -38 110 -25 35 -55 83 -68 106 -21 38 -50 57 -50 33 0 -27 -235 -171 -278 -171 -7 0 -24 25 -37 55 -44 99 -46 95 42 136 89 42 163 103 187 154 16 34 16 37 -19 147 -19 61 -35 120 -35 131 0 14 -5 18 -17 14 -10 -4 -51 -18 -91 -32 -40 -14 -101 -29 -136 -32 l-63 -6 -7 83 c-5 58 -3 85 5 90 6 4 39 10 72 14 40 4 85 17 127 38 74 38 66 7 62 236 l-2 117 -83 0 c-45 1 -94 4 -109 8 -29 8 -29 13 8 128 l15 46 49 -5 c27 -2 69 -1 94 2 36 6 47 12 50 29 3 12 16 73 31 136 14 62 25 114 23 115 -2 1 -25 9 -53 17 -60 18 -60 24 -11 113 35 62 38 65 62 56 62 -24 65 -21 148 148 72 145 134 285 151 340 9 30 -1 28 -115 -17z"/>
<path d="M3790 4376 c0 -22 55 -149 143 -333 76 -159 84 -172 109 -172 15 -1 38 3 51 8 22 9 26 4 63 -62 21 -39 40 -74 42 -78 4 -8 -40 -27 -83 -35 -28 -5 -35 -10 -30 -23 4 -9 19 -69 33 -135 31 -138 34 -141 149 -134 l71 5 22 -74 c12 -41 20 -80 17 -87 -7 -16 -122 -30 -175 -21 l-37 6 -2 -160 -3 -160 26 -20 c33 -26 115 -53 184 -60 l55 -6 3 -65 c4 -92 -2 -110 -38 -110 -45 0 -161 27 -214 50 -27 11 -50 19 -51 18 -1 -2 -19 -59 -39 -127 -24 -82 -35 -134 -31 -153 10 -43 87 -113 174 -156 43 -22 83 -41 90 -43 8 -3 2 -29 -20 -84 -18 -44 -33 -81 -34 -82 -6 -10 -211 105 -252 141 -28 25 -53 46 -56 46 -2 0 -34 -47 -70 -104 -77 -119 -83 -150 -42 -233 23 -46 127 -156 184 -195 l24 -17 -53 -65 c-28 -36 -55 -66 -59 -66 -4 0 -37 25 -74 55 -73 60 -137 136 -169 199 -11 23 -22 43 -24 45 -2 2 -27 -16 -56 -41 -29 -24 -81 -65 -115 -91 -48 -37 -65 -57 -74 -88 -28 -90 38 -257 148 -379 l22 -25 -69 -48 c-37 -26 -72 -47 -77 -47 -14 1 -100 123 -137 195 -37 74 -66 169 -66 217 0 15 -2 28 -4 28 -3 0 -44 -13 -93 -29 -48 -15 -104 -32 -123 -37 -30 -8 -37 -16 -53 -59 -34 -97 -6 -257 74 -418 l38 -78 -27 -10 c-55 -21 -209 -60 -296 -74 -49 -8 -91 -16 -93 -19 -6 -6 14 -176 21 -184 17 -17 292 40 444 92 l73 25 81 -69 c89 -77 175 -124 258 -141 54 -11 57 -11 145 30 93 43 295 160 295 171 0 4 -26 14 -57 24 -32 10 -85 32 -118 48 -73 37 -207 128 -203 139 5 11 127 99 139 99 6 0 30 -14 54 -30 108 -74 272 -127 361 -117 36 4 55 14 97 53 76 71 189 198 253 284 l55 75 -88 7 c-105 7 -197 28 -291 64 l-70 27 55 72 54 72 77 -25 c66 -22 95 -26 202 -26 175 -1 184 4 243 137 43 99 117 313 117 340 0 11 -13 10 -67 -4 -66 -17 -292 -27 -326 -13 -14 5 -13 11 41 147 6 16 22 19 107 22 117 4 221 33 266 73 27 24 32 37 39 102 10 85 13 344 4 377 -6 21 -7 21 -72 -12 -69 -35 -227 -83 -238 -72 -4 3 -3 44 1 91 l7 85 56 16 c112 33 212 98 212 138 0 52 -99 378 -129 426 -7 11 -19 6 -57 -26 -27 -22 -70 -52 -95 -67 l-46 -26 -21 74 c-28 95 -28 98 9 120 51 30 109 94 108 119 0 25 -57 119 -143 238 l-58 80 -47 -52 -47 -52 -45 79 -46 79 28 35 c16 19 29 39 29 45 0 34 -191 169 -322 229 -65 30 -212 86 -224 86 -2 0 -4 -6 -4 -14z"/>
<path d="M1800 2293 c0 -4 7 -49 17 -100 l16 -93 757 0 757 0 16 93 c10 51 17 96 17 100 0 4 -355 7 -790 7 -434 0 -790 -3 -790 -7z"/>
</g>
</svg>