<?xml version="1.0" standalone="no"?>
<!DOCTYPE svg PUBLIC "-//W3C//DTD SVG 20010904//EN"
 "http://www.w3.org/TR/2001/REC-SVG-20010904/DTD/svg10.dtd">
<svg version="1.0" xmlns="http://www.w3.org/2000/svg"
 width="1046.000000pt" height="205.000000pt" viewBox="0 0 1046.000000 205.000000"
 preserveAspectRatio="xMidYMid meet">
<metadata>
Created by potrace 1.15, written by Peter Selinger 2001-2017
</metadata>
<g transform="translate(0.000000,205.000000) scale(0.100000,-0.100000)"
fill="#E9204F" stroke="none">
<path d="M538 1674 c-74 -18 -125 -44 -165 -86 -49 -51 -63 -103 -63 -238 0
-103 3 -122 23 -161 67 -127 224 -168 648 -169 249 0 300 -25 307 -151 10
-174 -35 -188 -630 -189 -372 0 -348 6 -348 -87 0 -90 -36 -84 480 -81 514 4
531 6 614 79 56 50 75 99 82 213 12 173 -23 262 -126 324 -98 58 -129 64 -439
73 -156 5 -301 14 -322 19 -21 6 -51 21 -66 34 -26 23 -28 30 -28 99 0 125 36
147 254 157 165 7 171 10 171 93 0 88 2 87 -178 86 -97 0 -179 -6 -214 -15z"/>
<path d="M1782 1678 c-17 -17 -17 -1139 0 -1156 7 -7 40 -12 80 -12 56 0 69 3
78 19 6 13 10 146 10 365 l0 346 318 0 c179 0 333 -4 353 -10 19 -6 46 -22 60
-36 l24 -26 5 -319 c4 -269 7 -321 20 -329 8 -6 44 -9 80 -8 57 3 66 6 77 28
10 19 13 99 11 350 -3 317 -4 326 -26 372 -30 60 -75 100 -149 129 -56 23 -69
24 -415 27 l-358 3 0 115 c0 64 -5 124 -10 135 -9 16 -22 19 -78 19 -40 0 -73
-5 -80 -12z"/>
<path d="M7039 1661 l-29 -29 0 -550 c0 -499 2 -551 17 -563 21 -18 137 -19
155 -1 10 10 14 104 18 414 l5 401 270 -374 c148 -206 286 -391 306 -411 34
-35 41 -38 95 -38 40 0 69 6 89 18 18 12 136 169 305 407 l275 387 5 -389 c4
-310 8 -393 19 -406 10 -13 30 -17 82 -17 107 0 100 -45 97 588 l-3 540 -24
26 c-21 22 -33 26 -83 26 -49 0 -62 -4 -87 -27 -16 -16 -172 -226 -346 -468
-174 -242 -318 -440 -320 -440 -2 0 -148 196 -325 435 -177 239 -337 450 -355
468 -30 27 -42 32 -86 32 -43 0 -55 -5 -80 -29z"/>
<path d="M3450 1426 c-104 -28 -186 -89 -225 -167 -25 -47 -25 -53 -25 -289 0
-235 1 -242 24 -289 41 -79 107 -129 212 -156 85 -22 565 -22 649 0 88 23 163
78 198 145 l28 55 -3 260 c-3 244 -4 262 -25 300 -38 72 -99 115 -198 141 -67
18 -570 18 -635 0z m584 -177 c21 -6 49 -21 62 -34 24 -24 24 -27 24 -230 0
-123 -4 -214 -10 -226 -31 -58 -180 -85 -420 -76 -172 7 -243 22 -281 63 -23
25 -24 30 -27 212 -3 228 2 244 88 279 51 21 71 22 290 23 138 0 251 -5 274
-11z"/>
<path d="M4810 1424 c-87 -23 -140 -61 -172 -123 l-28 -53 0 -482 c0 -362 3
-485 12 -494 7 -7 40 -12 80 -12 85 0 88 5 88 144 l0 106 263 0 c418 1 515 15
600 91 77 67 82 92 82 389 0 244 -1 257 -22 297 -30 55 -84 98 -157 125 -58
21 -79 22 -376 25 -255 2 -326 -1 -370 -13z m677 -183 c59 -27 65 -55 61 -283
-3 -181 -4 -187 -27 -212 -14 -14 -41 -31 -60 -37 -22 -7 -162 -13 -354 -16
l-318 -5 3 251 c4 339 -19 320 388 320 239 1 269 -1 307 -18z"/>
<path d="M9293 1425 c-110 -30 -185 -84 -226 -160 -20 -37 -22 -57 -25 -260
-4 -246 3 -302 48 -364 67 -91 190 -131 408 -131 162 0 167 2 167 85 0 74 -12
85 -99 85 -111 1 -214 17 -252 41 -38 23 -74 84 -74 123 l0 25 451 3 c433 3
451 4 465 22 11 15 14 58 14 185 0 140 -3 172 -19 206 -25 53 -63 88 -136 122
l-60 28 -305 2 c-241 2 -316 -1 -357 -12z m589 -181 c32 -9 69 -27 83 -40 22
-20 25 -31 25 -89 l0 -65 -380 0 -380 0 0 64 c0 129 39 144 364 145 184 1 241
-2 288 -15z"/>
</g>
</svg>
