<?xml version="1.0" encoding="UTF-8"?> <svg xmlns="http://www.w3.org/2000/svg" width="200" height="200" viewBox="0 0 200 200" fill="none"><rect width="200" height="200" fill="white"></rect><g clip-path="url(#clip0)"><path d="M55.5466 86.5233C47.0883 86.5233 40.04 90.1117 40.04 100.938C40.04 109.515 44.7795 114.916 55.765 114.916C68.6955 114.916 69.5244 106.398 69.5244 106.398H63.259C63.259 106.398 61.9156 110.984 55.3828 110.984C50.062 110.984 46.2351 107.39 46.2351 102.352H70.1796V99.1907C70.1796 94.2065 67.0156 86.5233 55.5466 86.5233V86.5233ZM55.3282 90.5638C60.393 90.5638 63.8459 93.6666 63.8459 98.3171H46.3737C46.3737 93.38 50.8806 90.5638 55.3282 90.5638V90.5638Z" fill="#E53238"></path><path d="M70.175 76.04V109.479C70.175 111.377 70.0396 114.042 70.0396 114.042H76.0154C76.0154 114.042 76.2299 112.128 76.2299 110.379C76.2299 110.379 79.1824 114.998 87.2104 114.998C95.6642 114.998 101.407 109.128 101.407 100.72C101.407 92.8969 96.1321 86.6053 87.2241 86.6053C78.8824 86.6053 76.2903 91.1098 76.2903 91.1098V76.04H70.175ZM85.6816 90.7413C91.4224 90.7413 95.0729 95.0019 95.0729 100.72C95.0729 106.851 90.8567 110.862 85.7226 110.862C79.5954 110.862 76.2903 106.078 76.2903 100.774C76.2903 95.8324 79.2561 90.7413 85.6816 90.7413Z" fill="#0064D2"></path><path d="M116.258 86.5233C103.533 86.5233 102.717 93.4908 102.717 94.6042H109.051C109.051 94.6042 109.383 90.5365 115.821 90.5365C120.005 90.5365 123.247 92.4514 123.247 96.133V97.4434H115.821C105.963 97.4434 100.751 100.327 100.751 106.18C100.751 111.939 105.567 115.073 112.074 115.073C120.943 115.073 123.8 110.172 123.8 110.172C123.8 112.121 123.95 114.042 123.95 114.042H129.581C129.581 114.042 129.362 111.661 129.362 110.138V96.9725C129.362 88.34 122.399 86.5233 116.258 86.5233V86.5233ZM123.247 101.375V103.122C123.247 105.401 121.841 111.066 113.562 111.066C109.029 111.066 107.085 108.804 107.085 106.18C107.085 101.405 113.631 101.375 123.247 101.375V101.375Z" fill="#F5AF02"></path><path d="M125.952 87.6165H133.077L143.303 108.103L153.505 87.6165H159.96L141.376 124.09H134.606L139.968 113.922L125.952 87.6165Z" fill="#86B817"></path></g><defs><clipPath id="clip0"><rect width="120" height="48.1296" fill="white" transform="translate(40 76)"></rect></clipPath></defs></svg> 