<?xml version="1.0" encoding="utf-8"?>
<!-- Generator: Adobe Illustrator 21.1.0, SVG Export Plug-In . SVG Version: 6.00 Build 0)  -->
<svg version="1.1" id="Layer_1" xmlns="http://www.w3.org/2000/svg" xmlns:xlink="http://www.w3.org/1999/xlink" x="0px" y="0px"
	 viewBox="0 0 776 289" style="enable-background:new 0 0 776 289;" xml:space="preserve">
<style type="text/css">
	.st0{fill:#22386F;}
	.st1{fill:#44B2E0;}
</style>
<g>
	<path class="st0" d="M291.1,47.2c0,11.9-9.6,21.5-21.5,21.5c-11.9,0-21.5-9.6-21.5-21.5c0-11.9,9.6-21.5,21.5-21.5
		C281.5,25.7,291.1,35.3,291.1,47.2z M251,195.3h36.2V90.5H251V195.3z"/>
	<path class="st0" d="M305.4,90.5h36.2v11h0.4c8.2-8.2,18.6-14.1,30-14.1c13.9,0,29.2,5.1,36.6,19.2c11-13.3,23.3-19.2,34.7-19.2
		c19.2,0,40.9,9.6,40.9,38.8v69.1H448v-59.3c0-10.4-5.5-19.6-18.4-19.6c-11.4,0-16.3,8.4-16.8,16.3v62.5h-36.2v-59.3
		c0-10.4-5.5-19.6-18.4-19.6c-12.1,0-16.8,9.2-16.8,17.6v61.3h-36.2V90.5z"/>
	<path class="st0" d="M569.8,198.4c-14.1,0-25.7-4.7-34.3-13.1v63.1h-36.2v-158h35.8v11.9h0.4c7.8-8.6,20-14.9,34.3-14.9
		c30.7,0,52.1,24.7,52.1,55.4C621.9,173.5,600.5,198.4,569.8,198.4z M559,118.3c-14.1,0-24.3,10.2-24.3,24.5
		c0,14.5,10.8,24.7,24.3,24.7c13.7,0,24.5-10.2,24.5-24.7C583.5,128.5,573.7,118.3,559,118.3z"/>
	<path class="st0" d="M631.5,19.6h36.2v175.7h-36.2V19.6z"/>
	<path class="st0" d="M684.9,90.5H721v15.1h0.4c0,0,11.4-18.2,32.1-18.2c13.5,0,22.9,6.5,22.9,6.5l-15.1,30.7c0,0-6.7-5.7-18.8-5.7
		c-18.8,0-21.5,18.6-21.5,21.3v55.2h-36.2V90.5z"/>
</g>
<g>
	<path class="st1" d="M174.3,200.7c-39.4,0-63.3-22.3-63.3-22.3l19.2-32.3c0,0,22.5,19,41.3,19c8.4,0,24.3-0.8,24.3-16.6
		c0-12.3-18-17.8-38-27.8c-20.2-10-32.1-25.7-32.1-43.3c0-31.5,27.8-51.5,55-51.5c11.2,0,21.1,2.1,29.3,4.8
		c-11-18.2-30.9-30.4-53.6-30.4H62.5C28.1,0.4,0,28.5,0,62.9v93.8c0,34.4,28.1,62.5,62.5,62.5H114l103.1,69.5l0.8-99.6
		C206.1,197.3,190.5,200.7,174.3,200.7z"/>
	<path class="st1" d="M163.2,76.1c0,9.4,15.9,16.1,35.1,24.3c6.8,2.9,13.8,6.8,20,11.7l0.1-38.9l-1.1-0.6c0,0-16.8-11.6-34.1-11.6
		C170.2,61,163.2,66.9,163.2,76.1z"/>
</g>
</svg>
