<?xml version="1.0" standalone="no"?>
<!DOCTYPE svg PUBLIC "-//W3C//DTD SVG 20010904//EN"
 "http://www.w3.org/TR/2001/REC-SVG-20010904/DTD/svg10.dtd">
<svg version="1.0" xmlns="http://www.w3.org/2000/svg"
 width="512.000000pt" height="512.000000pt" viewBox="0 0 512.000000 512.000000"
 preserveAspectRatio="xMidYMid meet">
<g transform="translate(0.000000,512.000000) scale(0.100000,-0.100000)"
fill="#ffffff" stroke="none">
<path d="M2458 5066 c-76 -41 -511 -288 -1020 -582 -114 -65 -208 -122 -208
-126 0 -14 190 -18 1140 -24 962 -6 1259 0 1403 26 33 6 61 9 64 6 14 -13
-174 -273 -328 -454 l-70 -82 -92 94 c-140 143 -264 206 -450 228 -87 11 -89
11 -111 -13 l-23 -24 272 -870 c342 -1097 392 -1248 535 -1605 159 -397 261
-591 368 -697 39 -40 72 -77 72 -82 0 -32 -45 -36 -370 -36 -413 0 -398 -6
-365 153 13 61 14 92 5 180 -18 177 -84 456 -162 689 l-33 98 -335 -1 c-184
-1 -458 -5 -607 -9 l-273 -7 -39 -122 c-79 -242 -118 -478 -130 -773 -3 -94
-10 -175 -14 -179 -11 -11 -432 -34 -512 -27 -63 5 -68 4 -50 -9 23 -17 791
-460 1135 -655 129 -73 252 -138 273 -145 36 -11 42 -9 125 34 144 75 1834
1048 2042 1175 l65 40 3 1291 2 1291 -132 79 c-159 95 -921 536 -1496 866
-421 241 -560 316 -586 316 -8 0 -52 -20 -98 -44z"/>
<path d="M758 4090 c-180 -104 -346 -201 -368 -215 l-40 -25 2 -1292 3 -1292
85 -51 c176 -107 609 -355 619 -355 6 0 11 7 11 15 0 8 28 47 62 87 62 75 113
170 181 343 37 96 56 152 343 1060 102 325 238 752 300 950 63 198 144 458
180 579 81 269 82 266 -33 266 -149 -1 -287 -37 -376 -99 -55 -38 -137 -119
-180 -178 -17 -24 -33 -43 -36 -43 -3 1 -16 23 -29 49 -33 71 -111 170 -184
232 -89 78 -194 159 -205 159 -4 0 -156 -85 -335 -190z"/>
<path d="M2436 3794 c-69 -163 -174 -494 -327 -1034 -83 -294 -153 -542 -156
-551 -4 -14 11 -17 103 -22 134 -9 781 -7 890 1 l82 7 -138 460 c-152 508
-205 671 -317 975 -105 285 -92 270 -137 164z"/>
</g>
</svg>
